<?xml version="1.0" encoding="utf-8"?>
<!-- Generator: Adobe Illustrator 13.0.0, SVG Export Plug-In . SVG Version: 6.00 Build 14948)  -->
<!DOCTYPE svg PUBLIC "-//W3C//DTD SVG 1.1//EN" "http://www.w3.org/Graphics/SVG/1.1/DTD/svg11.dtd">
<svg version="1.1" id="Layer_1" xmlns="http://www.w3.org/2000/svg" xmlns:xlink="http://www.w3.org/1999/xlink" x="0px" y="0px"
	 width="141.85px" height="161.04px" viewBox="0 0 141.85 161.04" enable-background="new 0 0 141.85 161.04" xml:space="preserve">
<g>
	<g>
		<path fill-rule="evenodd" clip-rule="evenodd" fill="#FFFFFF" d="M0.25,0c47.2,0,94.399,0,141.6,0c0,53.68,0,107.36,0,161.04
			c-47.28,0-94.559,0-141.84,0c0-53.441,0-106.878,0-160.32C-0.01,0.379-0.029,0.041,0.25,0z M71.771,154.32
			c37.345-28.63,64.53-72.358,58.8-140.88c-40.021-0.946-84.208-0.552-120.96,0C6.045,80.633,31.597,127.087,71.771,154.32z"/>
		<path fill-rule="evenodd" clip-rule="evenodd" fill="#6E9351" d="M90.97,15.84C66.915,38.534,44.906,58.9,20.65,81.12
			c-7.775-18.378-9.416-42.926-8.64-65.28C40.607,15.949,67.881,15.615,90.97,15.84z"/>
		<path fill-rule="evenodd" clip-rule="evenodd" fill="#FFFFFF" d="M42.01,120.721c28.794-26.166,57.468-52.453,86.88-78
			c-4.588,50.693-26.462,84.096-57.6,108.24C60.562,141.85,49.363,133.207,42.01,120.721z"/>
		<path fill-rule="evenodd" clip-rule="evenodd" fill="#6E9351" d="M9.61,13.44c36.752-0.552,80.94-0.946,120.96,0
			c5.729,68.522-21.455,112.25-58.8,140.88C31.597,127.087,6.045,80.633,9.61,13.44z M9.85,13.68
			c-3.465,66.64,22.114,112.975,61.68,140.4c37.226-28.708,64.292-71.367,58.8-140.4C90.402,12.707,46.952,13.228,9.85,13.68z"/>
		<path fill-rule="evenodd" clip-rule="evenodd" fill="#6E9351" d="M128.89,42.24c-3.563,51.078-26.42,84.938-57.6,109.2
			c-10.796-9.204-22.117-17.883-29.52-30.48C70.033,94.102,99.968,67.64,128.89,42.24z M71.291,150.96
			c31.138-24.144,53.012-57.547,57.6-108.24c-29.412,25.548-58.085,51.834-86.88,78C49.363,133.207,60.562,141.85,71.291,150.96z"/>
		<path fill-rule="evenodd" clip-rule="evenodd" fill="#252121" d="M130.331,13.68c5.492,69.033-21.574,111.692-58.8,140.4
			C31.964,126.655,6.385,80.32,9.85,13.68C46.952,13.228,90.402,12.707,130.331,13.68z M12.01,15.84
			c-0.776,22.354,0.865,46.902,8.64,65.28C44.906,58.9,66.915,38.534,90.97,15.84C67.881,15.615,40.607,15.949,12.01,15.84z
			 M41.771,120.96c7.403,12.598,18.724,21.276,29.52,30.48c31.18-24.262,54.037-58.122,57.6-109.2
			C99.968,67.64,70.033,94.102,41.771,120.96z"/>
	</g>
</g>
</svg>
